/* XPM */
static char *result[] = {
/* columns rows colors chars-per-pixel */
"48 48 5 1 ",
"  c black",
". c #6520AE",
"X c #7069E6",
"o c white",
"O c None",
/* pixels */
"OOOOOOOOOOOOOOOOOOOOOOOOOOOOOOOOOOOOOOOOOOOOOOOO",
"OOOOOOOOOOOOOOOOOOOOOOOOOOOOOOOOOOOOOOOOOOOOOOOO",
"OOOOOOOOOOOOOOOOOOOOOOOOOOOOOOOOOOOOOOOOOOOOOOOO",
"OOOOOOOOOOOOOOOOOOOOOOOOOOOOOOOOOOOOOOOOOOOOOOOO",
"OOOOOOOOOOOOOOOOOOOOOOOOOOOOOOOOOOOOOOOOOOOOOOOO",
"OOOOOOOOOOOOOOOOOOOOOOOOOOOOOOOOOOOOOOOOOOOOOOOO",
"OOOOOOOOOOOOOOOOOOOOOOOOOOOOOOOOOOOOOOOOOOOOOOOO",
"OOOOOOOOOOOOOOOOOOOOOOOOOOOOOOOOOOOOOOOOOOOOOOOO",
"OOOOOOOOOOOOOOOOOOOOOOOOOOOOOOOOOOOOOOOOOOOOOOOO",
"OOOOOOOOOOOOOOOOOOOOOOOOOOOOOOOOOOOOOOOOOOOOOOOO",
"OOOOOOOOOOOOOOOOOOOOOOOOOOOOOOOOOOOOOOOOOOOOOOOO",
"OOOOOOOOOOOOOOOOOOOOOOOOOOOOOOOOOOOOOOOOOOOOOOOO",
"OOOOOOOOO      OOOOOOOOOOOOOOOOOO         OOOOOO",
"OOOOOOOOO      OOOOOOOOOOOOOOOOOO         OOOOOO",
"OOOOOOOOO      OOOOOOOOOOOOOOOOOO         OOOOOO",
"OOOOOO   ooo   OOO      OOOOOO   ooooooooo   OOO",
"OOOOOO   ooo   OOO      OOOOOO   ooooooooo   OOO",
"OOOOOO   ooo   OOO      OOOOOO   ooooooooo   OOO",
"OOOOOO   XXXXXX   XXX         ...ooo   ooo   OOO",
"OOOOOO   XXXXXX   XXX         ...ooo   ooo   OOO",
"OOOOOO   XXXXXX   XXX         ...ooo   ooo   OOO",
"OOO   XXXooooooooooooooooooooo...ooo   ooo   OOO",
"OOO   XXXooooooooooooooooooooo...ooo   ooo   OOO",
"OOO   XXXooooooooooooooooooooo...ooo   ooo   OOO",
"OOO      XXX      XXX            ooo   ooo   OOO",
"OOO      XXX      XXX            ooo   ooo   OOO",
"OOO      XXX      XXX            ooo   ooo   OOO",
"OOOOOO   ooo      ooo   OOOOOO   ooooooooo   OOO",
"OOOOOO   ooo      ooo   OOOOOO   ooooooooo   OOO",
"OOOOOO   ooo      ooo   OOOOOO   ooooooooo   OOO",
"OOOOOO   ooo   OOO      OOOOOOOOO         OOOOOO",
"OOOOOO   ooo   OOO      OOOOOOOOO         OOOOOO",
"OOOOOO   ooo   OOO      OOOOOOOOO         OOOOOO",
"OOOOOO      OOOOOOOOOOOOOOOOOOOOOOOOOOOOOOOOOOOO",
"OOOOOO      OOOOOOOOOOOOOOOOOOOOOOOOOOOOOOOOOOOO",
"OOOOOO      OOOOOOOOOOOOOOOOOOOOOOOOOOOOOOOOOOOO",
"OOOOOOOOOOOOOOOOOOOOOOOOOOOOOOOOOOOOOOOOOOOOOOOO",
"OOOOOOOOOOOOOOOOOOOOOOOOOOOOOOOOOOOOOOOOOOOOOOOO",
"OOOOOOOOOOOOOOOOOOOOOOOOOOOOOOOOOOOOOOOOOOOOOOOO",
"OOOOOOOOOOOOOOOOOOOOOOOOOOOOOOOOOOOOOOOOOOOOOOOO",
"OOOOOOOOOOOOOOOOOOOOOOOOOOOOOOOOOOOOOOOOOOOOOOOO",
"OOOOOOOOOOOOOOOOOOOOOOOOOOOOOOOOOOOOOOOOOOOOOOOO",
"OOOOOOOOOOOOOOOOOOOOOOOOOOOOOOOOOOOOOOOOOOOOOOOO",
"OOOOOOOOOOOOOOOOOOOOOOOOOOOOOOOOOOOOOOOOOOOOOOOO",
"OOOOOOOOOOOOOOOOOOOOOOOOOOOOOOOOOOOOOOOOOOOOOOOO",
"OOOOOOOOOOOOOOOOOOOOOOOOOOOOOOOOOOOOOOOOOOOOOOOO",
"OOOOOOOOOOOOOOOOOOOOOOOOOOOOOOOOOOOOOOOOOOOOOOOO",
"OOOOOOOOOOOOOOOOOOOOOOOOOOOOOOOOOOOOOOOOOOOOOOOO"
};
