/* XPM */
static char *result[] = {
/* columns rows colors chars-per-pixel */
"48 48 5 1 ",
"  c black",
". c #6520AE",
"X c #7069E6",
"o c white",
"O c None",
/* pixels */
"OOOOOOOOOOOOOOOOOOOOOOOOOOOOOOOOOOOOOOOOOOOOOOOO",
"OOOOOOOOOOOOOOOOOOOOOOOOOOOOOOOOOOOOOOOOOOOOOOOO",
"OOOOOOOOOOOOOOOOOOOOOOOOOOOOOOOOOOOOOOOOOOOOOOOO",
"OOOOOOOOO                              OOOOOOOOO",
"OOOOOOOOO                              OOOOOOOOO",
"OOOOOOOOO                              OOOOOOOOO",
"OOOOOO   ooo...XXX...XXX...oooXXXoooooo   OOOOOO",
"OOOOOO   ooo...XXX...XXX...oooXXXoooooo   OOOOOO",
"OOOOOO   ooo...XXX...XXX...oooXXXoooooo   OOOOOO",
"OOO   ooo...XXX...XXX...oooXXXooo......ooo   OOO",
"OOO   ooo...XXX...XXX...oooXXXooo......ooo   OOO",
"OOO   ooo...XXX...XXX...oooXXXooo......ooo   OOO",
"OOO   ooo...XXX...XXX...oooXXXooo......ooo   OOO",
"OOO   ooo...XXX...XXX...oooXXXooo......ooo   OOO",
"OOO   ooo...XXX...XXX...oooXXXooo......ooo   OOO",
"OOO   ooo               oooXXXooo      ooo   OOO",
"OOO   ooo               oooXXXooo      ooo   OOO",
"OOO   ooo               oooXXXooo      ooo   OOO",
"OOO   oooooooooooooooooooooXXXoooooooooooo   OOO",
"OOO   oooooooooooooooooooooXXXoooooooooooo   OOO",
"OOO   oooooooooooooooooooooXXXoooooooooooo   OOO",
"OOO                                          OOO",
"OOO                                          OOO",
"OOO                                          OOO",
"OOO   oooXXXooo   oooXXXooo   oooooooooooo   OOO",
"OOO   oooXXXooo   oooXXXooo   oooooooooooo   OOO",
"OOO   oooXXXooo   oooXXXooo   oooooooooooo   OOO",
"OOO   ......ooooooooo......   ...      ...   OOO",
"OOO   ......ooooooooo......   ...      ...   OOO",
"OOO   ......ooooooooo......   ...      ...   OOO",
"OOO   XXX   XXXXXXXXX   XXX   XXX......XXX   OOO",
"OOO   XXX   XXXXXXXXX   XXX   XXX......XXX   OOO",
"OOO   XXX   XXXXXXXXX   XXX   XXX......XXX   OOO",
"OOO   XXX...         ...XXX   XXX......XXX   OOO",
"OOO   XXX...         ...XXX   XXX......XXX   OOO",
"OOO   XXX...         ...XXX   XXX......XXX   OOO",
"OOO   XXX...XXX...XXX...XXX   XXX......XXX   OOO",
"OOO   XXX...XXX...XXX...XXX   XXX......XXX   OOO",
"OOO   XXX...XXX...XXX...XXX   XXX......XXX   OOO",
"OOO   ooo...XXX...XXX...ooo   ooo......ooo   OOO",
"OOO   ooo...XXX...XXX...ooo   ooo......ooo   OOO",
"OOO   ooo...XXX...XXX...ooo   ooo......ooo   OOO",
"OOO                                          OOO",
"OOO                                          OOO",
"OOO                                          OOO",
"OOOOOOOOOOOOOOOOOOOOOOOOOOOOOOOOOOOOOOOOOOOOOOOO",
"OOOOOOOOOOOOOOOOOOOOOOOOOOOOOOOOOOOOOOOOOOOOOOOO",
"OOOOOOOOOOOOOOOOOOOOOOOOOOOOOOOOOOOOOOOOOOOOOOOO"
};
