/* XPM */
static char *ea654d1a38c64b58cf4a75aee6f4b5344Drs40eEXeRE5Z9V[] = {
/* columns rows colors chars-per-pixel */
"48 48 4 1 ",
"  c black",
". c #6520AE",
"X c #7069E6",
"o c white",
/* pixels */
"......                                    ......",
"......                                    ......",
"......                                    ......",
"...   ...oooooooooooooooooooooooooooooo...   ...",
"...   ...oooooooooooooooooooooooooooooo...   ...",
"...   ...oooooooooooooooooooooooooooooo...   ...",
"   ...oooXXX........................XXXooo...   ",
"   ...oooXXX........................XXXooo...   ",
"   ...oooXXX........................XXXooo...   ",
"   oooXXXXXXXXXXXXXXXXXXXXXXXXXXXXXXXXXXXXooo   ",
"   oooXXXXXXXXXXXXXXXXXXXXXXXXXXXXXXXXXXXXooo   ",
"   oooXXXXXXXXXXXXXXXXXXXXXXXXXXXXXXXXXXXXooo   ",
"   XXXXXXXXXXXX..................XXXXXXXXXXXX   ",
"   XXXXXXXXXXXX..................XXXXXXXXXXXX   ",
"   XXXXXXXXXXXX..................XXXXXXXXXXXX   ",
"   XXXXXXXXXXXX...XXXXXXXXXXXX...XXXXXXXXXXXX   ",
"   XXXXXXXXXXXX...XXXXXXXXXXXX...XXXXXXXXXXXX   ",
"   XXXXXXXXXXXX...XXXXXXXXXXXX...XXXXXXXXXXXX   ",
"   XXXXXXXXXXXX..................XXXXXXXXXXXX   ",
"   XXXXXXXXXXXX..................XXXXXXXXXXXX   ",
"   XXXXXXXXXXXX..................XXXXXXXXXXXX   ",
"   XXXXXXXXXXXXXXXXXXXXXXXXXXXXXXXXXXXXXXXXXX   ",
"   XXXXXXXXXXXXXXXXXXXXXXXXXXXXXXXXXXXXXXXXXX   ",
"   XXXXXXXXXXXXXXXXXXXXXXXXXXXXXXXXXXXXXXXXXX   ",
"   XXXXXXXXXXXXXXXXXXXXXXXX      XXXXXXXXXXXX   ",
"   XXXXXXXXXXXXXXXXXXXXXXXX      XXXXXXXXXXXX   ",
"   XXXXXXXXXXXXXXXXXXXXXXXX      XXXXXXXXXXXX   ",
"   XXXXXXXXXXXXXXXXXXXXX   oooooo   XXXXXXXXX   ",
"   XXXXXXXXXXXXXXXXXXXXX   oooooo   XXXXXXXXX   ",
"   XXXXXXXXXXXXXXXXXXXXX   oooooo   XXXXXXXXX   ",
"   XXXXXXXXXXXXXXXXXXXXX   oooooo   XXXXXXXXX   ",
"   XXXXXXXXXXXXXXXXXXXXX   oooooo   XXXXXXXXX   ",
"   XXXXXXXXXXXXXXXXXXXXX   oooooo   XXXXXXXXX   ",
"   XXXXXXXXXXXXXXXXXXXXX...      ...XXXXXXXXX   ",
"   XXXXXXXXXXXXXXXXXXXXX...      ...XXXXXXXXX   ",
"   XXXXXXXXXXXXXXXXXXXXX...      ...XXXXXXXXX   ",
"   XXXXXXXXXXXXXXXXXXXXX............XXXXXXXXX   ",
"   XXXXXXXXXXXXXXXXXXXXX............XXXXXXXXX   ",
"   XXXXXXXXXXXXXXXXXXXXX............XXXXXXXXX   ",
"   XXXXXXXXXXXXXXXXXXXXXXXXXXXXXXXXXXXXXXXXXX   ",
"   XXXXXXXXXXXXXXXXXXXXXXXXXXXXXXXXXXXXXXXXXX   ",
"   XXXXXXXXXXXXXXXXXXXXXXXXXXXXXXXXXXXXXXXXXX   ",
"   XXXXXXXXXXXXXXXXXXXXXXXXXXXXXXXXXXXXXXXXXX   ",
"   XXXXXXXXXXXXXXXXXXXXXXXXXXXXXXXXXXXXXXXXXX   ",
"   XXXXXXXXXXXXXXXXXXXXXXXXXXXXXXXXXXXXXXXXXX   ",
"                                                ",
"                                                ",
"                                                "
};
