/* XPM */
static char *_a53613ccfd24fd5f5bb4375049cb8c9GhQtsjlL9EIffnzQ[] = {
/* columns rows colors chars-per-pixel */
"48 48 2 1 ",
"  c #6520AE",
". c #7069E6",
/* pixels */
"                                 ...            ",
"                                 ...            ",
"                                 ...            ",
"                                 ...            ",
"                                 ...            ",
"                                 ...            ",
"            ...               ......   ...      ",
"            ...               ......   ...      ",
"            ...               ......   ...      ",
"            ...                                 ",
"            ...                                 ",
"            ...                                 ",
"   ...      ...      ...                        ",
"   ...      ...      ...                        ",
"   ...      ...      ...                        ",
"      ...   ...   ...                  ...      ",
"      ...   ...   ...                  ...      ",
"      ...   ...   ...                  ...      ",
"                                       ...      ",
"                                       ...      ",
"                                       ...      ",
"                                 ...   ......   ",
"                                 ...   ......   ",
"                                 ...   ......   ",
"            ...                                 ",
"            ...                                 ",
"            ...                                 ",
"            ...                                 ",
"            ...                                 ",
"            ...                                 ",
"      ...   ......               ...            ",
"      ...   ......               ...            ",
"      ...   ......               ...            ",
"                                 ...            ",
"                                 ...            ",
"                                 ...            ",
"                        ...      ...      ...   ",
"                        ...      ...      ...   ",
"                        ...      ...      ...   ",
"      ...                  ...   ...   ...      ",
"      ...                  ...   ...   ...      ",
"      ...                  ...   ...   ...      ",
"      ...                                       ",
"      ...                                       ",
"      ...                                       ",
"   ......   ...                                 ",
"   ......   ...                                 ",
"   ......   ...                                 "
};
