/* XPM */
static char *_f9b6b7e4cb741b3c1273b4352edf4dcNYDgz1Pj1ksKPYtj[] = {
/* columns rows colors chars-per-pixel */
"48 48 12 1 ",
"  c None",
". c black",
"X c #21110D",
"o c #171C31",
"O c #402717",
"+ c #573A23",
"@ c #AC7B5D",
"# c #1D438A",
"$ c #2C65B5",
"% c #787E97",
"& c #A4A8B5",
"* c #C1AC8F",
/* pixels */
"                                                ",
"                                                ",
"                                                ",
"                     ....  ........             ",
"                     ....  ........             ",
"                 ......++..OO++++..             ",
"                 ......++..OO++++..             ",
"               ..++++OO++OO++++....             ",
"               ..++++OO++OO++++....             ",
"             ..++++++++++++++++++OO..           ",
"             ..++++++++++++++++++OO..           ",
"           ..++++++++++++++++++++++OO..         ",
"           ..++++++++++++++++++++++OO..         ",
"           ..++++++OOOO++++++OO++++OO..         ",
"           ..++++++OOOO++++++OO++++OO..         ",
"         ..OO++OO@@@@OO++++++OOOOOOOO..         ",
"         ..OO++OO@@@@OO++++++OOOOOOOO..         ",
"         ..OOOO@@@@@@@@OO++++OOOO++OO..         ",
"         ..OOOO@@@@@@@@OO++++OOOO++OO..         ",
"         ..OO..XX****XX@@++OO@@++++OO..         ",
"         ..OO..XX****XX@@++OO@@++++OO..         ",
"           ....XX****XX**OO@@@@++OOOO..         ",
"           ....XX****XX**OO@@@@++OOOO..         ",
"             ..************@@@@OOOO..           ",
"             ..************@@@@OOOO..           ",
"             ..@@********@@@@OOOO..             ",
"             ..@@********@@@@OOOO..             ",
"               ..@@@@@@@@@@OOOO..               ",
"               ..@@@@@@@@@@OOOO..               ",
"               ..OO%%%%%%++OOOO..               ",
"               ..OO%%%%%%++OOOO..               ",
"               ..OO&&%%%%++++OO..               ",
"               ..OO&&%%%%++++OO..               ",
"             ..@@OO&&&&%%++++****..             ",
"             ..@@OO&&&&%%++++****..             ",
"             ..@@OO$$$$$$++++****..             ",
"             ..@@OO$$$$$$++++****..             ",
"             oo....$$$$##$$$$##..oo             ",
"             oo....$$$$##$$$$##..oo             ",
"           oooooo..++OO....++OO..oooo           ",
"           oooooo..++OO....++OO..oooo           ",
"           oooooooooooooooooooooooooo           ",
"           oooooooooooooooooooooooooo           ",
"             oooooooooooooooooooooo             ",
"             oooooooooooooooooooooo             ",
"                                                ",
"                                                ",
"                                                "
};
