/* XPM */
static char *_37d3e34b9b04f5cefd9a2f768a37d56sr9VqDOubhpMH0Gw[] = {
/* columns rows colors chars-per-pixel */
"48 48 5 1 ",
"  c None",
". c #0E0000",
"X c #9E0000",
"o c #FF2100",
"O c #FFF1D1",
/* pixels */
"                                                ",
"                                                ",
"                                                ",
"                     ......                     ",
"                     ......                     ",
"                     ......                     ",
"      ......      ...XXXXXX...                  ",
"      ......      ...XXXXXX...                  ",
"      ......      ...XXXXXX...                  ",
"   ...OOOOOO......XXXooooooXXX...               ",
"   ...OOOOOO......XXXooooooXXX...               ",
"   ...OOOOOO......XXXooooooXXX...               ",
"   ...OOOOOO...XXXooooooooooooXXX...            ",
"   ...OOOOOO...XXXooooooooooooXXX...            ",
"   ...OOOOOO...XXXooooooooooooXXX...            ",
"      ...OOOXXXXXXooo......oooXXXXXX...         ",
"      ...OOOXXXXXXooo......oooXXXXXX...         ",
"      ...OOOXXXXXXooo......oooXXXXXX...         ",
"      ...OOOXXXooo............oooXXX...         ",
"      ...OOOXXXooo............oooXXX...         ",
"      ...OOOXXXooo............oooXXX...         ",
"      ...OOOooo...OOO......OOO...ooo...         ",
"      ...OOOooo...OOO......OOO...ooo...         ",
"      ...OOOooo...OOO......OOO...ooo...         ",
"      ......ooo..................ooo...         ",
"      ......ooo..................ooo...         ",
"      ......ooo..................ooo...         ",
"   ...OOOOOO...ooo............ooo...ooo...      ",
"   ...OOOOOO...ooo............ooo...ooo...      ",
"   ...OOOOOO...ooo............ooo...ooo...      ",
"   ...OOOOOOXXX...oooooooooooo...XXXoooooo...   ",
"   ...OOOOOOXXX...oooooooooooo...XXXoooooo...   ",
"   ...OOOOOOXXX...oooooooooooo...XXXoooooo...   ",
"   ...oooXXX...XXXXXXXXXXXX...OOOOOOXXXooo...   ",
"   ...oooXXX...XXXXXXXXXXXX...OOOOOOXXXooo...   ",
"   ...oooXXX...XXXXXXXXXXXX...OOOOOOXXXooo...   ",
"   ......OOOXXX...XXXXXXXXX...oooOOOXXXXXX...   ",
"   ......OOOXXX...XXXXXXXXX...oooOOOXXXXXX...   ",
"   ......OOOXXX...XXXXXXXXX...oooOOOXXXXXX...   ",
"   ......OOO...XXXXXXXXXXXXXXX...XXXXXX......   ",
"   ......OOO...XXXXXXXXXXXXXXX...XXXXXX......   ",
"   ......OOO...XXXXXXXXXXXXXXX...XXXXXX......   ",
"      ....................................      ",
"      ....................................      ",
"      ....................................      ",
"                                                ",
"                                                ",
"                                                "
};
