/* XPM */
static char *_5c22680ab1848cff060a476de96bfb7pAwNt9ul42D3amtS[] = {
/* columns rows colors chars-per-pixel */
"48 48 5 1 ",
"  c None",
". c #0E0000",
"X c #9E0000",
"o c #FF2100",
"O c #FFF1D1",
/* pixels */
"                                                ",
"                                                ",
"                                                ",
"                     ......                     ",
"                     ......                     ",
"                     ......                     ",
"                  ...oooooo...         ......   ",
"                  ...oooooo...         ......   ",
"                  ...oooooo...         ......   ",
"                  ...oooooo...      ...OOO...   ",
"                  ...oooooo...      ...OOO...   ",
"                  ...oooooo...      ...OOO...   ",
"               ...oooooooooooo...   ...OOO...   ",
"               ...oooooooooooo...   ...OOO...   ",
"               ...oooooooooooo...   ...OOO...   ",
"      ............XXXXXXXXXXXX.........OOO...   ",
"      ............XXXXXXXXXXXX.........OOO...   ",
"      ............XXXXXXXXXXXX.........OOO...   ",
"      ...oooOOOOOOOOOOOOOOOOOOOOOOOOoooOOO...   ",
"      ...oooOOOOOOOOOOOOOOOOOOOOOOOOoooOOO...   ",
"      ...oooOOOOOOOOOOOOOOOOOOOOOOOOoooOOO...   ",
"         ..............................OOO...   ",
"         ..............................OOO...   ",
"         ..............................OOO...   ",
"         ...oooXXX...oooooo...XXXooo...OOO...   ",
"         ...oooXXX...oooooo...XXXooo...OOO...   ",
"         ...oooXXX...oooooo...XXXooo...OOO...   ",
"            ...OOOoooOOOOOOoooOOO......ooo...   ",
"            ...OOOoooOOOOOOoooOOO......ooo...   ",
"            ...OOOoooOOOOOOoooOOO......ooo...   ",
"         ......OOOOOOXXXXXXOOOOOO...OOOOOO...   ",
"         ......OOOOOOXXXXXXOOOOOO...OOOOOO...   ",
"         ......OOOOOOXXXXXXOOOOOO...OOOOOO...   ",
"         ...XXXXXXOOOOOOOOOOOOXXXXXXOOOOOO...   ",
"         ...XXXXXXOOOOOOOOOOOOXXXXXXOOOOOO...   ",
"         ...XXXXXXOOOOOOOOOOOOXXXXXXOOOOOO...   ",
"      ...XXXoooXXXXXXOOOOOOXXXooooooXXXXXX...   ",
"      ...XXXoooXXXXXXOOOOOOXXXooooooXXXXXX...   ",
"      ...XXXoooXXXXXXOOOOOOXXXooooooXXXXXX...   ",
"      ...oooOOOoooXXX......XXXXXXXXXXXXOOO...   ",
"      ...oooOOOoooXXX......XXXXXXXXXXXXOOO...   ",
"      ...oooOOOoooXXX......XXXXXXXXXXXXOOO...   ",
"      .......................................   ",
"      .......................................   ",
"      .......................................   ",
"                                                ",
"                                                ",
"                                                "
};
