/* XPM */
static char *_ba12c0fe1e4461ca44f921436fb285ctiQcWbYMgeZU7pQZ[] = {
/* columns rows colors chars-per-pixel */
"48 48 12 1 ",
"  c None",
". c black",
"X c #21110D",
"o c #171C31",
"O c #402717",
"+ c #573A23",
"@ c #AC7B5D",
"# c #1D438A",
"$ c #2C65B5",
"% c #787E97",
"& c #A4A8B5",
"* c #C1AC8F",
/* pixels */
"                                                ",
"                                                ",
"                                                ",
"                                                ",
"                                                ",
"             ........  ....                     ",
"             ........  ....                     ",
"             ..++++OO..++......                 ",
"             ..++++OO..++......                 ",
"             ....++++OO++OO++++..               ",
"             ....++++OO++OO++++..               ",
"           ..OO++++++++++++++++++..             ",
"           ..OO++++++++++++++++++..             ",
"         ..OO++++++++++++++++++++++..           ",
"         ..OO++++++++++++++++++++++..           ",
"         ..OO++++OO++++++OOOO++++++..           ",
"         ..OO++++OO++++++OOOO++++++..           ",
"         ..OOOOOOOO++++++OO@@@@OO++OO..         ",
"         ..OOOOOOOO++++++OO@@@@OO++OO..         ",
"         ..OO++OOOO++++OO@@@@@@@@OOOO..         ",
"         ..OO++OOOO++++OO@@@@@@@@OOOO..         ",
"         ..OO++++@@OO++@@XX****XX..OO..         ",
"         ..OO++++@@OO++@@XX****XX..OO..         ",
"         ..OOOO++@@@@OO**XX****XX....           ",
"         ..OOOO++@@@@OO**XX****XX....           ",
"           ..OOOO@@@@************..             ",
"           ..OOOO@@@@************..             ",
"             ..OOOO@@@@********@@..             ",
"             ..OOOO@@@@********@@..             ",
"               ..OOOO@@@@@@@@@@..               ",
"               ..OOOO@@@@@@@@@@..               ",
"             ..OOOO++++%%%%&&OO....             ",
"             ..OOOO++++%%%%&&OO....             ",
"           ..****OO++++%%&&&&OO@@@@..           ",
"           ..****OO++++%%&&&&OO@@@@..           ",
"           ..****OO++++$$$$$$OO@@@@..           ",
"           ..****OO++++$$$$$$OO@@@@..           ",
"             ....##$$$$##$$$$......             ",
"             ....##$$$$##$$$$......             ",
"           oooo..OO++....OO++..oooooo           ",
"           oooo..OO++....OO++..oooooo           ",
"           oooooooooooooooooooooooooo           ",
"           oooooooooooooooooooooooooo           ",
"             oooooooooooooooooooooo             ",
"             oooooooooooooooooooooo             ",
"                                                ",
"                                                ",
"                                                "
};
