/* XPM */
static char *def5a64784784538efc9cf14b679f829nYElcBwHPybijKEj[] = {
/* columns rows colors chars-per-pixel */
"48 48 3 1 ",
"  c black",
". c #6520AE",
"X c #7069E6",
/* pixels */
"................................................",
"................................................",
"................................................",
".................................XXXXXXXXX   ...",
".................................XXXXXXXXX   ...",
".................................XXXXXXXXX   ...",
"...........................XXXXXX         ......",
"...........................XXXXXX         ......",
"...........................XXXXXX         ......",
".....................XXXXXX            .........",
".....................XXXXXX            .........",
".....................XXXXXX            .........",
"...............XXXXXX               ............",
"...............XXXXXX               ............",
"...............XXXXXX               ............",
".........XXXXXX                  ...............",
".........XXXXXX                  ...............",
".........XXXXXX                  ...............",
"......XXX                     ...XXX............",
"......XXX                     ...XXX............",
"......XXX                     ...XXX............",
"...XXX                        ......XXXXXX......",
"...XXX                        ......XXXXXX......",
"...XXX                        ......XXXXXX......",
"............                  ...         XXX...",
"............                  ...         XXX...",
"............                  ...         XXX...",
"..................                           ...",
"..................                           ...",
"..................                           ...",
".....................XXX      ...         ......",
".....................XXX      ...         ......",
".....................XXX      ...         ......",
"...............XXXXXX...            ............",
"...............XXXXXX...            ............",
"...............XXXXXX...            ............",
".........XXXXXX      ...         ...............",
".........XXXXXX      ...         ...............",
".........XXXXXX      ...         ...............",
"...XXXXXX               ........................",
"...XXXXXX               ........................",
"...XXXXXX               ........................",
"......         .................................",
"......         .................................",
"......         .................................",
"................................................",
"................................................",
"................................................"
};
