/* XPM */
static char *_42ebfe44c1847a1d97c9d00d85c5ba1oYLO98sjeZGQyMnV[] = {
/* columns rows colors chars-per-pixel */
"48 48 4 1 ",
"  c black",
". c #6520AE",
"X c #7069E6",
"o c white",
/* pixels */
"................................................",
"................................................",
"................................................",
".....................      .....................",
".....................      .....................",
".....................      .....................",
"..................   oooXXX   ..................",
"..................   oooXXX   ..................",
"..................   oooXXX   ..................",
"..................   oooXXX   ..................",
"..................   oooXXX   ..................",
"..................   oooXXX   ..................",
"............      XXXoooXXXXXX      ............",
"............      XXXoooXXXXXX      ............",
"............      XXXoooXXXXXX      ............",
".........   XXX......XXXXXX......XXX   .........",
".........   XXX......XXXXXX......XXX   .........",
".........   XXX......XXXXXX......XXX   .........",
"......         oooooo......oooooo         ......",
"......         oooooo......oooooo         ......",
"......         oooooo......oooooo         ......",
"...   XXXXXX.........oooooo.........XXXXXX   ...",
"...   XXXXXX.........oooooo.........XXXXXX   ...",
"...   XXXXXX.........oooooo.........XXXXXX   ...",
"...      ...XXXooo...XXXXXX...oooXXX...      ...",
"...      ...XXXooo...XXXXXX...oooXXX...      ...",
"...      ...XXXooo...XXXXXX...oooXXX...      ...",
"...      XXX      oooooooooooo      XXX      ...",
"...      XXX      oooooooooooo      XXX      ...",
"...      XXX      oooooooooooo      XXX      ...",
"......      ...XXXXXX......XXXXXX...      ......",
"......      ...XXXXXX......XXXXXX...      ......",
"......      ...XXXXXX......XXXXXX...      ......",
"...   ...XXX         ......         XXX...   ...",
"...   ...XXX         ......         XXX...   ...",
"...   ...XXX         ......         XXX...   ...",
"...         XXX......XXXXXX......XXX         ...",
"...         XXX......XXXXXX......XXX         ...",
"...         XXX......XXXXXX......XXX         ...",
"......                                    ......",
"......                                    ......",
"......                                    ......",
".........         ...      ...         .........",
".........         ...      ...         .........",
".........         ...      ...         .........",
".....................      .....................",
".....................      .....................",
".....................      ....................."
};
